<svg width="32" height="32" viewBox="0 0 32 32" fill="none" xmlns="http://www.w3.org/2000/svg">
<path d="M14.02 23H14.01C14.008 23 14.004 23 14 23C13.378 23 12.864 22.761 12.382 22.249C10.094 19.813 9.84 12.57 9.955 9H12C12.388 9 12.741 8.775 12.905 8.424C13.07 8.072 13.016 7.657 12.768 7.36L7.768 1.36C7.387 0.904 6.612 0.904 6.231 1.36L1.231 7.36C0.982995 7.658 0.929995 8.073 1.095 8.424C1.259 8.775 1.612 9 2 9H3.971C3.95 11.657 4.261 18.589 7.843 22.402C9.463 24.126 11.534 25 14 25C14.008 25.001 14.015 25 14.02 25C14.573 25 15.02 24.552 15.02 24C15.02 23.448 14.572 23 14.02 23ZM9.47299 21.209C9.41499 21.152 9.359 21.094 9.303 21.035C5.496 16.987 5.992 8.151 5.998 8.062C6.015 7.787 5.917 7.516 5.728 7.315C5.539 7.114 5.275 7 5 7H4.135L7 3.562L9.865 7H9C8.472 7 8.035 7.411 8.002 7.938C7.977 8.34 7.50699 16.348 9.47299 21.209Z" fill="white"/>
<path d="M20 19C19.612 19 19.259 19.225 19.095 19.576C18.93 19.928 18.984 20.343 19.232 20.64L24.232 26.64C24.422 26.868 24.703 27 25 27C25.297 27 25.578 26.868 25.769 26.64L30.769 20.64C31.017 20.342 31.071 19.927 30.906 19.576C30.741 19.225 30.388 19 30 19H28.029C28.05 16.343 27.739 9.411 24.157 5.598C22.537 3.874 20.466 3 18 3C17.447 3 17 3.448 17 4C17 4.552 17.447 5 18 5C18.622 5 19.136 5.239 19.618 5.751C21.906 8.187 22.16 15.43 22.045 19H20ZM22.527 6.791C22.585 6.848 22.641 6.906 22.697 6.965C26.504 11.013 26.008 19.849 26.002 19.938C25.985 20.213 26.083 20.484 26.272 20.685C26.461 20.886 26.725 21 27 21H27.865L25 24.438L22.135 21H23C23.528 21 23.965 20.589 23.998 20.062C24.023 19.66 24.493 11.652 22.527 6.791Z" fill="white"/>
<path d="M30 29H22C21.447 29 21 29.448 21 30C21 30.552 21.447 31 22 31H30C30.553 31 31 30.552 31 30C31 29.448 30.553 29 30 29Z" fill="white"/>
<path d="M19 29H17C16.447 29 16 29.448 16 30C16 30.552 16.447 31 17 31H19C19.553 31 20 30.552 20 30C20 29.448 19.553 29 19 29Z" fill="white"/>
<path d="M14 29H2C1.447 29 1 29.448 1 30C1 30.552 1.447 31 2 31H14C14.553 31 15 30.552 15 30C15 29.448 14.553 29 14 29Z" fill="white"/>
</svg>
