<svg width="40" height="40" viewBox="0 0 40 40" fill="none" xmlns="http://www.w3.org/2000/svg">
<path d="M7.84233 27.5367C2.46129 24.3032 0 20 0 20C0 20 6.15322 9.22982 19.9959 9.22982C21.9988 9.22982 23.8407 9.38265 25.5298 9.84112L24.2991 11.0718C22.9157 10.9189 21.5322 10.7661 19.9959 10.7661C7.68943 10.7661 1.84186 20 1.84186 20C1.84186 20 4.15032 23.6919 8.92007 26.4588L7.84233 27.5367ZM13.8427 20C13.8427 20.4584 13.8427 20.925 13.9955 21.3834L15.379 20C15.379 18.7693 15.8375 17.6915 16.7625 16.7665C17.6875 15.8415 18.9181 15.383 19.9959 15.383L21.3795 13.9996C20.9209 13.8467 20.4545 13.8467 19.9959 13.8467C16.6097 13.8467 13.8427 16.6137 13.8427 20ZM32.1495 12.4633L31.0718 13.5411C35.8415 16.308 38.15 20 38.15 20C38.15 20 32.3024 29.2338 19.9959 29.2338C18.4596 29.2338 17.0762 29.0811 15.6927 28.9282L14.4621 30.1588C16.1512 30.6173 18.0012 30.7702 20.004 30.7702C33.8468 30.7702 40 20 40 20C40 20 37.5306 15.6967 32.1495 12.4633ZM32.2863 6.18941L6.18539 32.2903L7.7056 33.8105L33.8145 7.70157L32.2863 6.18941ZM23.2295 23.2335C22.3045 24.1585 21.2267 24.617 19.9959 24.617L18.6125 26.0004C19.0709 26.1532 19.5375 26.1532 19.9959 26.1532C23.3821 26.1532 26.1492 23.3862 26.1492 20C26.1492 19.5415 26.1492 19.075 25.9963 18.6165L24.6129 20C24.6129 21.2306 24.1463 22.3085 23.2295 23.2335Z" fill="white"/>
</svg>
