<svg width="27" height="35" viewBox="0 0 27 35" fill="none" xmlns="http://www.w3.org/2000/svg">
<path d="M24.5162 4.41445H18.3538C17.9613 1.92195 15.8613 0 13.2838 0C10.7064 0 8.56587 1.92195 8.21384 4.41445H2.14046C0.958943 4.41445 0 5.37746 0 6.55491V8.73988C0 9.83239 0.784984 10.7063 1.83701 10.8358V32.1595C1.83701 33.7335 3.10347 35 4.67746 35H22.0237C23.5977 35 24.8642 33.7335 24.8642 32.1595V10.8763C25.9121 10.7023 26.7012 9.82836 26.7012 8.78036V6.59539C26.6567 5.37746 25.6936 4.41445 24.5162 4.41445ZM13.2838 1.6185C14.9873 1.6185 16.3873 2.80002 16.6907 4.41445H9.83234C10.1803 2.84046 11.5803 1.6185 13.2838 1.6185ZM23.2052 32.2081C23.2052 32.8636 22.6792 33.4301 21.9832 33.4301H4.63296C3.97747 33.4301 3.411 32.9041 3.411 32.2081V10.9248H23.1648V32.2081H23.2052ZM25.0382 8.73988C25.0382 9.0474 24.8196 9.26591 24.5121 9.26591H2.1364C1.82887 9.26591 1.61036 9.0474 1.61036 8.73988V6.55491C1.61036 6.24739 1.82887 6.02888 2.1364 6.02888H24.4676C24.7751 6.02888 24.9936 6.24739 24.9936 6.55491V8.73988H25.0382ZM7.03639 29.2341V15.4284C7.03639 14.9914 7.38435 14.6434 7.82138 14.6434C8.2584 14.6434 8.60636 14.9913 8.60636 15.4284V29.2341C8.60636 29.6711 8.2584 30.0191 7.82138 30.0191C7.3844 30.0677 7.03639 29.6711 7.03639 29.2341ZM12.5838 29.2341V15.4284C12.5838 14.9914 12.9318 14.6434 13.3688 14.6434C13.8058 14.6434 14.1538 14.9913 14.1538 15.4284V29.2341C14.1538 29.6711 13.8058 30.0191 13.3688 30.0191C12.9358 30.0677 12.5838 29.6711 12.5838 29.2341ZM18.1352 29.2341V15.4284C18.1352 14.9914 18.4832 14.6434 18.9202 14.6434C19.3572 14.6434 19.7052 14.9913 19.7052 15.4284V29.2341C19.7052 29.6711 19.3572 30.0191 18.9202 30.0191C18.5278 30.0677 18.1352 29.6711 18.1352 29.2341Z" fill="white"/>
</svg>
