<svg width="150" height="150" viewBox="0 0 150 150" fill="none" xmlns="http://www.w3.org/2000/svg">
<path d="M74 25C64.1109 25 54.444 27.9324 46.2215 33.4265C37.999 38.9206 31.5904 46.7295 27.806 55.8658C24.0217 65.0021 23.0315 75.0555 24.9608 84.7545C26.89 94.4535 31.6521 103.363 38.6447 110.355C45.6373 117.348 54.5465 122.11 64.2455 124.039C73.9445 125.968 83.9979 124.978 93.1342 121.194C102.27 117.41 110.079 111.001 115.573 102.778C121.068 94.556 124 84.8891 124 75C123.986 61.7436 118.713 49.0343 109.339 39.6606C99.9657 30.287 87.2564 25.0145 74 25ZM74 120.312C65.038 120.312 56.2773 117.655 48.8257 112.676C41.3741 107.697 35.5663 100.62 32.1367 92.3403C28.7071 84.0606 27.8098 74.9497 29.5582 66.16C31.3066 57.3702 35.6222 49.2963 41.9592 42.9592C48.2963 36.6222 56.3702 32.3066 65.16 30.5582C73.9497 28.8098 83.0606 29.7071 91.3404 33.1367C99.6201 36.5663 106.697 42.3741 111.676 49.8257C116.655 57.2773 119.312 66.038 119.312 75C119.298 87.0132 114.519 98.5302 106.025 107.025C97.5302 115.519 86.0132 120.298 74 120.312Z" fill="white"/>
<path d="M74 25C64.1109 25 54.444 27.9324 46.2215 33.4265C37.999 38.9206 31.5904 46.7295 27.806 55.8658C24.0217 65.0021 23.0315 75.0555 24.9608 84.7545C26.89 94.4535 31.6521 103.363 38.6447 110.355C45.6373 117.348 54.5465 122.11 64.2455 124.039C73.9445 125.968 83.9979 124.978 93.1342 121.194C102.27 117.41 110.079 111.001 115.573 102.778C121.068 94.556 124 84.8891 124 75C123.986 61.7436 118.713 49.0343 109.339 39.6606C99.9657 30.287 87.2564 25.0145 74 25ZM74 120.312C65.038 120.312 56.2773 117.655 48.8257 112.676C41.3741 107.697 35.5663 100.62 32.1367 92.3403C28.7071 84.0606 27.8098 74.9497 29.5582 66.16C31.3066 57.3702 35.6222 49.2963 41.9592 42.9592C48.2963 36.6222 56.3702 32.3066 65.16 30.5582C73.9497 28.8098 83.0606 29.7071 91.3404 33.1367C99.6201 36.5663 106.697 42.3741 111.676 49.8257C116.655 57.2773 119.312 66.038 119.312 75C119.298 87.0132 114.519 98.5302 106.025 107.025C97.5302 115.519 86.0132 120.298 74 120.312Z" stroke="black"/>
<g filter="url(#filter0_d_17_20)">
<path d="M97.4138 72.4138H77.5862V52.5862C77.5862 51.9003 77.3137 51.2425 76.8287 50.7575C76.3437 50.2725 75.6859 50 75 50C74.3141 50 73.6563 50.2725 73.1713 50.7575C72.6863 51.2425 72.4138 51.9003 72.4138 52.5862V72.4138H52.5862C51.9003 72.4138 51.2425 72.6863 50.7575 73.1713C50.2725 73.6563 50 74.3141 50 75C50 75.6859 50.2725 76.3437 50.7575 76.8287C51.2425 77.3137 51.9003 77.5862 52.5862 77.5862H72.4138V97.4138C72.4138 98.0997 72.6863 98.7575 73.1713 99.2425C73.6563 99.7275 74.3141 100 75 100C75.6859 100 76.3437 99.7275 76.8287 99.2425C77.3137 98.7575 77.5862 98.0997 77.5862 97.4138V77.5862H97.4138C98.0997 77.5862 98.7575 77.3137 99.2425 76.8287C99.7275 76.3437 100 75.6859 100 75C100 74.3141 99.7275 73.6563 99.2425 73.1713C98.7575 72.6863 98.0997 72.4138 97.4138 72.4138Z" fill="white"/>
</g>
<rect x="0.25" y="0.25" width="149.5" height="149.5" stroke="#933EFF" stroke-width="0.5"/>
<defs>
<filter id="filter0_d_17_20" x="46" y="50" width="58" height="58" filterUnits="userSpaceOnUse" color-interpolation-filters="sRGB">
<feFlood flood-opacity="0" result="BackgroundImageFix"/>
<feColorMatrix in="SourceAlpha" type="matrix" values="0 0 0 0 0 0 0 0 0 0 0 0 0 0 0 0 0 0 127 0" result="hardAlpha"/>
<feOffset dy="4"/>
<feGaussianBlur stdDeviation="2"/>
<feComposite in2="hardAlpha" operator="out"/>
<feColorMatrix type="matrix" values="0 0 0 0 0 0 0 0 0 0 0 0 0 0 0 0 0 0 0.25 0"/>
<feBlend mode="normal" in2="BackgroundImageFix" result="effect1_dropShadow_17_20"/>
<feBlend mode="normal" in="SourceGraphic" in2="effect1_dropShadow_17_20" result="shape"/>
</filter>
</defs>
</svg>
