<svg width="57" height="23" viewBox="0 0 57 23" fill="none" xmlns="http://www.w3.org/2000/svg">
<path d="M7.25 20.1562L11.7812 0.25H14.3906L15.4219 2.71875L10.5938 23H7.73438L7.25 20.1562ZM5.48438 0.25L9.28125 20.25L8.625 23H5.375L0.4375 0.25H5.48438ZM18.6562 20.1406L22.4062 0.25H27.4375L22.5 23H19.2812L18.6562 20.1406ZM16.0938 0.25L20.6875 20.2656L20.1562 23H17.3125L12.4062 2.70312L13.4844 0.25H16.0938ZM35.2031 0.25V23H30.125V0.25H35.2031ZM49.4375 0.25V23H44.3594V0.25H49.4375ZM56.3594 0.25V4.20312H37.5781V0.25H56.3594Z" fill="#6300C6"/>
<path d="M7.25 20.1562L6.95748 20.0897L6.94424 20.1478L6.95426 20.2066L7.25 20.1562ZM11.7812 0.25V-0.05H11.5419L11.4887 0.183414L11.7812 0.25ZM14.3906 0.25L14.6674 0.134367L14.5904 -0.05H14.3906V0.25ZM15.4219 2.71875L15.7137 2.78823L15.7363 2.69323L15.6987 2.60312L15.4219 2.71875ZM10.5938 23V23.3H10.8307L10.8856 23.0695L10.5938 23ZM7.73438 23L7.43863 23.0504L7.48115 23.3H7.73438V23ZM5.48438 0.25L5.77911 0.194046L5.73278 -0.05H5.48438V0.25ZM9.28125 20.25L9.57306 20.3196L9.58797 20.2572L9.57599 20.194L9.28125 20.25ZM8.625 23V23.3H8.86183L8.91681 23.0696L8.625 23ZM5.375 23L5.08183 23.0636L5.13313 23.3H5.375V23ZM0.4375 0.25V-0.05H0.0654059L0.144325 0.313629L0.4375 0.25ZM18.6562 20.1406L18.3614 20.085L18.3501 20.145L18.3632 20.2047L18.6562 20.1406ZM22.4062 0.25V-0.05H22.1575L22.1114 0.19442L22.4062 0.25ZM27.4375 0.25L27.7307 0.313629L27.8096 -0.05H27.4375V0.25ZM22.5 23V23.3H22.7419L22.7932 23.0636L22.5 23ZM19.2812 23L18.9882 23.0641L19.0397 23.3H19.2812V23ZM16.0938 0.25L16.3861 0.182892L16.3327 -0.05H16.0938V0.25ZM20.6875 20.2656L20.982 20.3228L20.9941 20.2605L20.9799 20.1985L20.6875 20.2656ZM20.1562 23V23.3H20.4036L20.4507 23.0572L20.1562 23ZM17.3125 23L17.0209 23.0705L17.0764 23.3H17.3125V23ZM12.4062 2.70312L12.1316 2.58242L12.0908 2.67515L12.1146 2.77361L12.4062 2.70312ZM13.4844 0.25V-0.05H13.2885L13.2097 0.129296L13.4844 0.25ZM7.54252 20.2228L12.0738 0.316586L11.4887 0.183414L6.95748 20.0897L7.54252 20.2228ZM11.7812 0.55H14.3906V-0.05H11.7812V0.55ZM14.1138 0.365633L15.1451 2.83438L15.6987 2.60312L14.6674 0.134367L14.1138 0.365633ZM15.13 2.64927L10.3019 22.9305L10.8856 23.0695L15.7137 2.78823L15.13 2.64927ZM10.5938 22.7H7.73438V23.3H10.5938V22.7ZM8.03012 22.9496L7.54574 20.1059L6.95426 20.2066L7.43863 23.0504L8.03012 22.9496ZM5.18964 0.305954L8.98651 20.306L9.57599 20.194L5.77911 0.194046L5.18964 0.305954ZM8.98944 20.1804L8.33319 22.9304L8.91681 23.0696L9.57306 20.3196L8.98944 20.1804ZM8.625 22.7H5.375V23.3H8.625V22.7ZM5.66817 22.9364L0.730675 0.186371L0.144325 0.313629L5.08183 23.0636L5.66817 22.9364ZM0.4375 0.55H5.48438V-0.05H0.4375V0.55ZM18.9511 20.1962L22.7011 0.30558L22.1114 0.19442L18.3614 20.085L18.9511 20.1962ZM22.4062 0.55H27.4375V-0.05H22.4062V0.55ZM27.1443 0.186371L22.2068 22.9364L22.7932 23.0636L27.7307 0.313629L27.1443 0.186371ZM22.5 22.7H19.2812V23.3H22.5V22.7ZM19.5743 22.9359L18.9493 20.0766L18.3632 20.2047L18.9882 23.0641L19.5743 22.9359ZM15.8014 0.317108L20.3951 20.3327L20.9799 20.1985L16.3861 0.182892L15.8014 0.317108ZM20.393 20.2084L19.8618 22.9428L20.4507 23.0572L20.982 20.3228L20.393 20.2084ZM20.1562 22.7H17.3125V23.3H20.1562V22.7ZM17.6041 22.9295L12.6979 2.63264L12.1146 2.77361L17.0209 23.0705L17.6041 22.9295ZM12.6809 2.82383L13.759 0.370704L13.2097 0.129296L12.1316 2.58242L12.6809 2.82383ZM13.4844 0.55H16.0938V-0.05H13.4844V0.55ZM35.2031 0.25H35.5031V-0.05H35.2031V0.25ZM35.2031 23V23.3H35.5031V23H35.2031ZM30.125 23H29.825V23.3H30.125V23ZM30.125 0.25V-0.05H29.825V0.25H30.125ZM34.9031 0.25V23H35.5031V0.25H34.9031ZM35.2031 22.7H30.125V23.3H35.2031V22.7ZM30.425 23V0.25H29.825V23H30.425ZM30.125 0.55H35.2031V-0.05H30.125V0.55ZM49.4375 0.25H49.7375V-0.05H49.4375V0.25ZM49.4375 23V23.3H49.7375V23H49.4375ZM44.3594 23H44.0594V23.3H44.3594V23ZM44.3594 0.25V-0.05H44.0594V0.25H44.3594ZM56.3594 0.25H56.6594V-0.05H56.3594V0.25ZM56.3594 4.20312V4.50313H56.6594V4.20312H56.3594ZM37.5781 4.20312H37.2781V4.50313H37.5781V4.20312ZM37.5781 0.25V-0.05H37.2781V0.25H37.5781ZM49.1375 0.25V23H49.7375V0.25H49.1375ZM49.4375 22.7H44.3594V23.3H49.4375V22.7ZM44.6594 23V0.25H44.0594V23H44.6594ZM44.3594 0.55H49.4375V-0.05H44.3594V0.55ZM56.0594 0.25V4.20312H56.6594V0.25H56.0594ZM56.3594 3.90312H37.5781V4.50313H56.3594V3.90312ZM37.8781 4.20312V0.25H37.2781V4.20312H37.8781ZM37.5781 0.55H56.3594V-0.05H37.5781V0.55Z" fill="white"/>
</svg>
